HIERARCHY
ROOT Hips
{
	OFFSET 0.000000 0.000000 0.000000
	CHANNELS 6 Xposition Yposition Zposition Xrotation Yrotation Zrotation
	JOINT LeftUpLeg_virtual
	{
		OFFSET 0.000000 0.000000 0.000000
		CHANNELS 3 Xrotation Yrotation Zrotation
		JOINT LeftUpLeg
		{
			OFFSET 11.394100 -6.187798 -0.413800
			CHANNELS 3 Xrotation Yrotation Zrotation
			JOINT LeftLeg
			{
				OFFSET 0.430247 -32.302673 3.732800
				CHANNELS 3 Xrotation Yrotation Zrotation
				JOINT LeftFoot
				{
					OFFSET -0.430247 -48.264931 -6.423300
					CHANNELS 3 Xrotation Yrotation Zrotation
					JOINT LeftToeBase
					{
						OFFSET 4.230900 -16.068199 23.438400
						CHANNELS 3 Xrotation Yrotation Zrotation
						JOINT LeftToe_End
						{
							OFFSET 4.510700 0.695400 19.974600
							CHANNELS 3 Xrotation Yrotation Zrotation
							End Site
							{
								OFFSET 0 0 0
							}
						}
					}
				}
			}
		}
	}
	JOINT RightUpLeg_virtual
	{
		OFFSET 0.000000 0.000000 0.000000
		CHANNELS 3 Xrotation Yrotation Zrotation
		JOINT RightUpLeg
		{
			OFFSET -11.333700 -6.187798 -0.413800
			CHANNELS 3 Xrotation Yrotation Zrotation
			JOINT RightLeg
			{
				OFFSET -0.430392 -32.302628 3.733000
				CHANNELS 3 Xrotation Yrotation Zrotation
				JOINT RightFoot
				{
					OFFSET 0.430392 -48.264973 -6.423500
					CHANNELS 3 Xrotation Yrotation Zrotation
					JOINT RightToeBase
					{
						OFFSET -4.230900 -16.068199 23.438400
						CHANNELS 3 Xrotation Yrotation Zrotation
						JOINT RightToe_End
						{
							OFFSET -4.510700 0.695400 19.974600
							CHANNELS 3 Xrotation Yrotation Zrotation
							End Site
							{
								OFFSET 0 0 0
							}
						}
					}
				}
			}
		}
	}
	JOINT Spine_virtual
	{
		OFFSET 0.000000 0.000000 0.000000
		CHANNELS 3 Xrotation Yrotation Zrotation
		JOINT Spine
		{
			OFFSET -0.002400 12.777504 0.315300
			CHANNELS 3 Xrotation Yrotation Zrotation
			JOINT Spine1
			{
				OFFSET -0.002067 5.816869 0.032633
				CHANNELS 3 Xrotation Yrotation Zrotation
				JOINT Spine1_split
				{
					OFFSET -0.002067 5.816869 0.032633
					CHANNELS 3 Xrotation Yrotation Zrotation
					JOINT Spine2
					{
						OFFSET -0.002067 5.816869 0.032633
						CHANNELS 3 Xrotation Yrotation Zrotation
						JOINT Neck_virtual
						{
							OFFSET 0.000000 0.000000 0.000000
							CHANNELS 3 Xrotation Yrotation Zrotation
							JOINT Neck
							{
								OFFSET -0.003700 21.199493 -0.826900
								CHANNELS 3 Xrotation Yrotation Zrotation
								JOINT Head
								{
									OFFSET 0.000000 20.442200 4.834800
									CHANNELS 3 Xrotation Yrotation Zrotation
									JOINT HeadTop_End
									{
										OFFSET 0.000000 34.668396 4.968400
										CHANNELS 3 Xrotation Yrotation Zrotation
										End Site
										{
											OFFSET 0 0 0
										}
									}
								}
							}
						}
						JOINT LeftShoulder_virtual
						{
							OFFSET 0.000000 0.000000 0.000000
							CHANNELS 3 Xrotation Yrotation Zrotation
							JOINT LeftShoulder
							{
								OFFSET 3.288150 8.794197 -1.372250
								CHANNELS 3 Xrotation Yrotation Zrotation
								JOINT LeftShoulder_split
								{
									OFFSET 3.288150 8.794197 -1.372250
									CHANNELS 3 Xrotation Yrotation Zrotation
									JOINT LeftArm
									{
										OFFSET 11.953299 -2.279007 -0.146200
										CHANNELS 3 Xrotation Yrotation Zrotation
										JOINT LeftForeArm
										{
											OFFSET 18.448900 0.000000 0.000000
											CHANNELS 3 Xrotation Yrotation Zrotation
											JOINT LeftHand
											{
												OFFSET 29.527798 0.000000 0.000000
												CHANNELS 3 Xrotation Yrotation Zrotation
												End Site
												{
													OFFSET 0 0 0
												}
											}
										}
									}
								}
							}
						}
						JOINT RightShoulder_virtual
						{
							OFFSET 0.000000 0.000000 0.000000
							CHANNELS 3 Xrotation Yrotation Zrotation
							JOINT RightShoulder
							{
								OFFSET -3.249400 8.794197 -1.372250
								CHANNELS 3 Xrotation Yrotation Zrotation
								JOINT RightShoulder_split
								{
									OFFSET -3.249400 8.794197 -1.372250
									CHANNELS 3 Xrotation Yrotation Zrotation
									JOINT RightArm
									{
										OFFSET -11.953299 -2.279007 -0.146200
										CHANNELS 3 Xrotation Yrotation Zrotation
										JOINT RightForeArm
										{
											OFFSET -18.448900 0.000000 0.000000
											CHANNELS 3 Xrotation Yrotation Zrotation
											JOINT RightHand
											{
												OFFSET -29.527802 0.000000 0.000000
												CHANNELS 3 Xrotation Yrotation Zrotation
												End Site
												{
													OFFSET 0 0 0
												}
											}
										}
									}
								}
							}
						}
					}
				}
			}
		}
	}
}
MOTION
Frames: 5
Frame Time: 0.03333333
-0.223358 96.271378 -3.002113 0.000000 0.000000 0.000000 -6.525810 -24.640570 2.242077 -19.305724 11.494289 10.125042 30.006151 10.906241 2.365155 0.811989 18.010239 -12.264832 -1.175764 0.327405 -0.378237 0.000000 0.000000 0.000000 -5.785875 -23.669554 2.538165 -16.987001 -33.626722 -13.010918 33.567340 4.875786 -8.343583 -16.149999 -19.184984 4.759362 -6.059572 -0.454694 -2.215128 0.000000 0.000000 0.000000 -6.982358 -26.385398 1.444290 5.324573 -2.691702 -1.689513 1.342714 -2.774660 0.399946 0.768572 0.766569 0.008365 0.000000 0.000000 0.000000 0.953613 -2.425818 0.282115 2.008874 5.371913 -0.289316 0.064542 -19.094117 -3.526564 0.000000 0.000000 0.000000 1.373256 -2.585730 0.077099 -0.062151 -16.062254 -18.567492 -1.926186 -1.555642 -1.850386 16.339416 7.198277 -35.535681 171.364597 -82.252656 170.384711 0.000000 0.000000 0.000000 0.909100 -2.476872 0.310521 0.854866 15.245083 11.459638 2.709472 2.294909 0.019721 3.380489 28.086318 43.226290 -172.054159 83.808497 171.644143 0.000000 0.000000 0.000000 
-0.930782 96.429085 -2.721756 0.000000 0.000000 0.000000 -6.653927 -26.260165 1.882785 -18.627388 11.330435 10.527913 30.350622 11.441405 2.303019 0.629983 18.801001 -11.700514 -1.428857 0.374816 -0.838323 0.000000 0.000000 0.000000 -5.935583 -25.236137 2.174483 -15.831876 -33.451855 -12.174197 32.501742 5.273265 -8.326428 -16.350617 -18.599857 4.589304 -6.055637 -0.478305 -2.159721 0.000000 0.000000 0.000000 -7.128364 -27.808195 1.138028 5.340586 -2.615951 -1.508338 1.325947 -2.652226 0.380118 0.722875 0.745638 0.000050 0.000000 0.000000 0.000000 0.938176 -2.313874 0.256717 1.980567 5.414118 -0.270634 0.115946 -19.095930 -3.281288 0.000000 0.000000 0.000000 1.337175 -2.468722 0.060110 -0.073796 -16.086695 -18.489390 -1.870506 -1.537789 -1.964045 15.563812 6.892074 -35.708123 171.454837 -82.599650 170.474008 0.000000 0.000000 0.000000 0.888262 -2.365720 0.267044 0.832340 15.293951 11.378210 2.744698 2.300584 0.042559 3.913272 27.398805 42.483387 -173.006042 83.020280 172.594181 0.000000 0.000000 0.000000 
-1.568569 96.583710 -2.429688 0.000000 0.000000 0.000000 -6.809177 -28.002078 1.516107 -18.288335 11.221049 10.847713 30.784533 11.785730 2.204673 0.389633 19.182554 -10.921433 -1.757985 0.448805 -1.291475 0.000000 0.000000 0.000000 -6.139343 -26.808629 1.804736 -14.653614 -33.127401 -11.411959 31.569940 5.429216 -8.241886 -16.570698 -17.939796 4.416413 -5.890584 -0.531829 -2.128601 0.000000 0.000000 0.000000 -7.258377 -29.176997 0.839102 5.354810 -2.475745 -1.350102 1.298873 -2.513309 0.351772 0.681252 0.670951 -0.008984 0.000000 0.000000 0.000000 0.937634 -2.179328 0.225177 1.948506 5.454686 -0.288041 0.141492 -18.941351 -3.072025 0.000000 0.000000 0.000000 1.295029 -2.330375 0.032473 -0.089129 -16.123613 -18.407182 -1.809683 -1.526758 -2.066419 14.819755 6.546532 -35.863104 171.685315 -82.925204 170.703011 0.000000 0.000000 0.000000 0.862395 -2.233839 0.223926 0.819841 15.371081 11.322501 2.721888 2.315442 0.042565 4.475022 26.552395 41.834028 -173.812783 82.189777 173.408913 0.000000 0.000000 0.000000 
-2.135015 96.747223 -2.119652 0.000000 0.000000 0.000000 -6.983404 -29.820193 1.142121 -18.431057 11.151591 11.060848 31.232727 11.844427 2.088227 0.297639 18.957146 -10.073766 -2.121281 0.527308 -1.674098 0.000000 0.000000 0.000000 -6.356668 -28.372626 1.438146 -13.572119 -32.694620 -10.760597 30.764138 5.350716 -8.109319 -16.718717 -17.224684 4.301754 -5.696055 -0.593753 -2.132340 0.000000 0.000000 0.000000 -7.370969 -30.508823 0.551926 5.373996 -2.273990 -1.214370 1.267037 -2.366605 0.316736 0.658017 0.559568 -0.018931 0.000000 0.000000 0.000000 0.954826 -2.030400 0.187939 1.903982 5.489615 -0.326743 0.127477 -18.643343 -2.895961 0.000000 0.000000 0.000000 1.250671 -2.179926 -0.003793 -0.104349 -16.158971 -18.330778 -1.746691 -1.510359 -2.147508 14.136818 6.179403 -35.991706 171.986882 -83.218000 171.004946 0.000000 0.000000 0.000000 0.836918 -2.090960 0.183043 0.815924 15.453962 11.288991 2.661982 2.327187 0.019500 5.035303 25.659465 41.270868 -174.515390 81.325355 174.129184 0.000000 0.000000 0.000000 
-2.627481 96.942863 -1.821632 0.000000 0.000000 0.000000 -7.128528 -31.600659 0.791479 -19.096345 11.118600 11.107869 31.595113 11.584349 1.982966 0.492061 17.998544 -9.237696 -2.475273 0.593663 -1.944603 0.000000 0.000000 0.000000 -6.550132 -29.926228 1.094982 -12.601177 -32.156558 -10.202155 30.014016 5.073281 -7.951666 -16.741190 -16.453994 4.250170 -5.494456 -0.644081 -2.143817 0.000000 0.000000 0.000000 -7.436125 -31.816237 0.278413 5.391261 -2.012547 -1.097683 1.236098 -2.214975 0.279787 0.643579 0.443121 -0.022134 0.000000 0.000000 0.000000 0.986160 -1.877263 0.146164 1.849035 5.520913 -0.369529 0.073419 -18.224225 -2.739093 0.000000 0.000000 0.000000 1.214841 -2.024749 -0.044143 -0.117117 -16.172918 -18.269112 -1.697810 -1.491082 -2.220535 13.542500 5.804594 -36.085091 172.289664 -83.468231 171.314928 0.000000 0.000000 0.000000 0.812450 -1.946833 0.144997 0.816852 15.521069 11.279693 2.586631 2.322496 -0.022569 5.560039 24.820049 40.792625 -175.119930 80.474286 174.766960 0.000000 0.000000 0.000000 
